<svg width="26" height="26" viewBox="0 0 26 26" fill="none" xmlns="http://www.w3.org/2000/svg">
<path d="M4.0625 24.375C3.84701 24.375 3.64035 24.2894 3.48798 24.137C3.3356 23.9847 3.25 23.778 3.25 23.5625C3.25 23.347 3.3356 23.1403 3.48798 22.988C3.64035 22.8356 3.84701 22.75 4.0625 22.75H5.6875V21.125C5.68717 19.7453 6.07715 18.3937 6.81241 17.2263C7.54766 16.0588 8.59818 15.1232 9.84263 14.5275C10.3139 14.3016 10.5625 13.9149 10.5625 13.5688V12.4313C10.5625 12.0851 10.3123 11.6984 9.84263 11.4725C8.59818 10.8768 7.54766 9.94117 6.81241 8.77374C6.07715 7.6063 5.68717 6.25468 5.6875 4.875V3.25H4.0625C3.84701 3.25 3.64035 3.1644 3.48798 3.01202C3.3356 2.85965 3.25 2.65299 3.25 2.4375C3.25 2.22201 3.3356 2.01535 3.48798 1.86298C3.64035 1.7106 3.84701 1.625 4.0625 1.625H21.9375C22.153 1.625 22.3597 1.7106 22.512 1.86298C22.6644 2.01535 22.75 2.22201 22.75 2.4375C22.75 2.65299 22.6644 2.85965 22.512 3.01202C22.3597 3.1644 22.153 3.25 21.9375 3.25H20.3125V4.875C20.3128 6.25468 19.9228 7.6063 19.1876 8.77374C18.4523 9.94117 17.4018 10.8768 16.1574 11.4725C15.6861 11.6984 15.4375 12.0851 15.4375 12.4313V13.5688C15.4375 13.9149 15.6877 14.3016 16.1574 14.5275C17.4018 15.1232 18.4523 16.0588 19.1876 17.2263C19.9228 18.3937 20.3128 19.7453 20.3125 21.125V22.75H21.9375C22.153 22.75 22.3597 22.8356 22.512 22.988C22.6644 23.1403 22.75 23.347 22.75 23.5625C22.75 23.778 22.6644 23.9847 22.512 24.137C22.3597 24.2894 22.153 24.375 21.9375 24.375H4.0625ZM7.3125 3.25V4.875C7.3125 5.74762 7.5075 6.57312 7.86012 7.3125H18.1399C18.4909 6.57312 18.6875 5.74762 18.6875 4.875V3.25H7.3125ZM12.1875 13.5688C12.1875 14.7079 11.4107 15.5772 10.5446 15.9932C9.5766 16.4566 8.75942 17.1843 8.18748 18.0924C7.61555 19.0005 7.3122 20.0518 7.3125 21.125C7.3125 21.125 8.71975 19.0141 12.1875 18.72V13.5688ZM13.8125 13.5688V18.72C17.2803 19.0141 18.6875 21.125 18.6875 21.125C18.6878 20.0518 18.3845 19.0005 17.8125 18.0924C17.2406 17.1843 16.4234 16.4566 15.4554 15.9932C14.5892 15.5772 13.8125 14.7095 13.8125 13.5704V13.5688Z" fill="#989B9C"/>
</svg>
