<svg width="34" height="36" viewBox="0 0 34 36" fill="none" xmlns="http://www.w3.org/2000/svg">
<g filter="url(#filter0_d)">
<path fill-rule="evenodd" clip-rule="evenodd" d="M21.5679 2.74617V6.84785C24.3722 8.39667 26.1637 11.4297 26.1637 14.8417C26.1637 19.8251 22.0603 23.8675 17 23.8675C11.9432 23.8675 7.83976 19.8269 7.83976 14.8417C7.83976 11.3197 9.60685 8.2954 12.5473 6.80769V2.74268C7.41894 4.44516 4 9.19116 4 14.8417C4 21.917 9.82163 27.6496 16.9983 27.6496C24.1766 27.6496 30 21.917 30 14.8417C30.0017 9.29419 26.5549 4.53596 21.5679 2.74617Z" fill="white" fill-opacity="0.42"/>
<path fill-rule="evenodd" clip-rule="evenodd" d="M16.9162 13.6775C18.2747 13.6775 19.3818 12.8394 19.3818 11.8004V1.8771C19.3818 0.839893 18.2747 0 16.9162 0C15.556 0 14.4507 0.839893 14.4507 1.8771V11.8004C14.4507 12.8394 15.556 13.6775 16.9162 13.6775Z" fill="white" fill-opacity="0.42"/>
</g>
<defs>
<filter id="filter0_d" x="0" y="0" width="34" height="35.6496" filterUnits="userSpaceOnUse" color-interpolation-filters="sRGB">
<feFlood flood-opacity="0" result="BackgroundImageFix"/>
<feColorMatrix in="SourceAlpha" type="matrix" values="0 0 0 0 0 0 0 0 0 0 0 0 0 0 0 0 0 0 127 0"/>
<feOffset dy="4"/>
<feGaussianBlur stdDeviation="2"/>
<feColorMatrix type="matrix" values="0 0 0 0 0 0 0 0 0 0 0 0 0 0 0 0 0 0 0.25 0"/>
<feBlend mode="normal" in2="BackgroundImageFix" result="effect1_dropShadow"/>
<feBlend mode="normal" in="SourceGraphic" in2="effect1_dropShadow" result="shape"/>
</filter>
</defs>
</svg>
