<svg width="21" height="21" viewBox="0 0 21 21" fill="none" xmlns="http://www.w3.org/2000/svg">
<path d="M19.7367 17.3555L15.8546 13.4487C15.6794 13.2723 15.4414 13.1739 15.1914 13.1731L14.5547 13.171C15.6373 11.7958 16.2837 10.0636 16.2898 8.17712C16.3044 3.6893 12.6793 0.0411033 8.19074 0.0264772C3.70215 0.0118511 0.0533365 3.63634 0.0387129 8.12416C0.0240893 12.612 3.64921 16.2602 8.13779 16.2748C10.0246 16.281 11.7612 15.646 13.1437 14.5725L13.1417 15.2092C13.1408 15.4592 13.2377 15.6977 13.4129 15.8741L17.2951 19.7809C17.6611 20.1492 18.2549 20.1512 18.6194 19.7852L19.7285 18.6834C20.0969 18.3175 20.0989 17.7238 19.7367 17.3555ZM8.14797 13.1501C5.38607 13.1411 3.15491 10.8997 3.16392 8.13435C3.17292 5.37291 5.41474 3.14214 8.18055 3.15116C10.9425 3.16016 13.1736 5.40159 13.1646 8.16693C13.1556 10.9284 10.9138 13.1591 8.14797 13.1501Z" fill="white" fill-opacity="0.7"/>
</svg>
