<svg width="30" height="32" viewBox="0 0 30 32" fill="none" xmlns="http://www.w3.org/2000/svg">
<g filter="url(#filter0_d)">
<path d="M11.3275 23.8332C10.7988 23.83 10.2855 23.6551 9.86498 23.3348L7.62248 21.6665C7.10498 21.263 6.76161 20.6767 6.66289 20.028C6.56417 19.3792 6.71759 18.7173 7.09164 18.1782C7.28956 17.8859 7.41533 17.5509 7.45865 17.2006C7.50196 16.8504 7.46158 16.4948 7.34081 16.1632L7.27581 15.9898C7.19172 15.6897 7.03803 15.4135 6.82721 15.1839C6.61639 14.9543 6.35439 14.7776 6.06248 14.6682H5.88914C5.25634 14.4554 4.73302 14.0015 4.43283 13.4052C4.13264 12.8089 4.07981 12.1182 4.28581 11.4832L5.17414 8.6665C5.25592 8.34016 5.40647 8.03506 5.61573 7.77162C5.82498 7.50819 6.0881 7.2925 6.38748 7.139C6.66627 6.99536 6.97132 6.90977 7.28415 6.88742C7.59698 6.86508 7.91109 6.90644 8.20748 7.009C8.53018 7.11761 8.87453 7.14576 9.2106 7.09101C9.54666 7.03626 9.86426 6.90026 10.1358 6.69484L10.2766 6.5865C10.5224 6.39037 10.7211 6.14158 10.858 5.85847C10.9948 5.57535 11.0664 5.26513 11.0675 4.95067V4.69067C11.0646 4.02781 11.3236 3.39064 11.7883 2.91789C12.2529 2.44513 12.8855 2.17507 13.5483 2.1665H16.3108C16.6333 2.16737 16.9524 2.23194 17.2499 2.3565C17.5473 2.48106 17.8173 2.66316 18.0441 2.89234C18.5211 3.37744 18.7861 4.03203 18.7808 4.71234V5.01567C18.7753 5.3144 18.8401 5.61024 18.9699 5.87934C19.0998 6.14843 19.291 6.38324 19.5283 6.56484L19.6475 6.6515C19.8906 6.83383 20.1742 6.95467 20.4742 7.00371C20.7741 7.05275 21.0814 7.02855 21.37 6.93317L21.7383 6.814C22.0504 6.71056 22.3801 6.67102 22.7078 6.69776C23.0354 6.72449 23.3544 6.81695 23.6456 6.96961C23.9367 7.12228 24.1942 7.33202 24.4025 7.58634C24.6109 7.84065 24.7659 8.13432 24.8583 8.44984L25.7141 11.1798C25.9122 11.8108 25.858 12.4939 25.5631 13.0857C25.2682 13.6776 24.7554 14.1322 24.1325 14.354L23.9158 14.4298C23.5971 14.5342 23.309 14.7152 23.0766 14.957C22.8443 15.1988 22.6749 15.4939 22.5833 15.8165C22.4971 16.1164 22.4766 16.4313 22.5234 16.7399C22.5701 17.0484 22.6829 17.3431 22.8541 17.604L23.1358 18.0157C23.5093 18.5578 23.6613 19.2223 23.5606 19.8729C23.4599 20.5236 23.1141 21.111 22.5941 21.5148L20.4166 23.194C20.1536 23.3952 19.8521 23.5404 19.5308 23.6207C19.2095 23.701 18.8752 23.7146 18.5484 23.6609C18.2216 23.6071 17.9093 23.487 17.6307 23.3079C17.352 23.1289 17.113 22.8947 16.9283 22.6198L16.7983 22.4357C16.6209 22.169 16.3788 21.9517 16.0946 21.8039C15.8105 21.6562 15.4935 21.5828 15.1733 21.5907C14.8678 21.5986 14.5684 21.6782 14.2993 21.8231C14.0302 21.968 13.7989 22.1741 13.6241 22.4248L13.375 22.7823C13.1902 23.0592 12.9507 23.2952 12.6712 23.4759C12.3918 23.6567 12.0782 23.7782 11.75 23.8332C11.6095 23.8469 11.468 23.8469 11.3275 23.8332ZM6.76664 12.5882C7.37839 12.8063 7.93039 13.165 8.37821 13.6354C8.82603 14.1058 9.15717 14.6748 9.34498 15.2965V15.4265C9.57891 16.0729 9.65572 16.7656 9.56907 17.4475C9.48242 18.1294 9.23479 18.7809 8.84664 19.3482C8.77813 19.4239 8.74019 19.5223 8.74019 19.6244C8.74019 19.7265 8.77813 19.825 8.84664 19.9007L11.1758 21.6665C11.2062 21.6904 11.2413 21.7075 11.2789 21.7166C11.3164 21.7258 11.3555 21.7268 11.3935 21.7196C11.4314 21.7124 11.4674 21.6972 11.499 21.675C11.5306 21.6527 11.5571 21.624 11.5766 21.5907L11.8258 21.2332C12.2016 20.6902 12.7035 20.2464 13.2884 19.9399C13.8733 19.6334 14.5238 19.4732 15.1841 19.4732C15.8445 19.4732 16.495 19.6334 17.0799 19.9399C17.6648 20.2464 18.1667 20.6902 18.5425 21.2332L18.6725 21.4282C18.719 21.4942 18.7886 21.5406 18.8675 21.5582C18.9037 21.5635 18.9406 21.5615 18.9759 21.5522C19.0113 21.5428 19.0444 21.5265 19.0733 21.504L21.305 19.814C21.3831 19.752 21.4345 19.6624 21.4486 19.5637C21.4627 19.465 21.4384 19.3646 21.3808 19.2832L21.0991 18.8715C20.7321 18.3363 20.49 17.7256 20.3906 17.0843C20.2912 16.443 20.3372 15.7877 20.525 15.1665C20.7154 14.5137 21.0597 13.9161 21.5292 13.424C21.9986 12.932 22.5793 12.5599 23.2225 12.339L23.4391 12.2632C23.5294 12.227 23.6018 12.1566 23.6403 12.0673C23.6789 11.978 23.6806 11.877 23.645 11.7865L22.8 9.089C22.7797 9.04181 22.75 8.99922 22.7128 8.96384C22.6755 8.92846 22.6315 8.90101 22.5833 8.88317C22.5514 8.86699 22.5162 8.85856 22.4804 8.85856C22.4446 8.85856 22.4094 8.86699 22.3775 8.88317L22.0091 9.00234C21.3861 9.20798 20.7224 9.25922 20.0751 9.15166C19.4278 9.0441 18.8164 8.78095 18.2933 8.38484L18.25 8.28734C17.748 7.90722 17.3411 7.41592 17.061 6.85202C16.7809 6.28811 16.6354 5.66696 16.6358 5.03734V4.7015C16.6378 4.59709 16.5989 4.49603 16.5275 4.41984C16.4652 4.36351 16.384 4.33259 16.3 4.33317H13.5483C13.5042 4.33593 13.461 4.34737 13.4213 4.36685C13.3816 4.38632 13.3462 4.41345 13.317 4.44666C13.2878 4.47988 13.2654 4.51853 13.2512 4.56041C13.237 4.60228 13.2312 4.64655 13.2341 4.69067V4.9615C13.2342 5.6083 13.0858 6.24647 12.8003 6.82684C12.5148 7.40722 12.0999 7.9143 11.5875 8.309L11.4466 8.41734C10.8938 8.83822 10.246 9.11666 9.56023 9.22813C8.87445 9.33959 8.17178 9.28065 7.51414 9.0565C7.46494 9.03999 7.41168 9.03999 7.36248 9.0565C7.30134 9.09365 7.25529 9.1512 7.23248 9.219L6.33331 12.0465C6.30197 12.1428 6.30931 12.2475 6.35379 12.3385C6.39827 12.4295 6.4764 12.4996 6.57164 12.534L6.76664 12.5882Z" fill="white" fill-opacity="0.34"/>
<path d="M14.9999 16.7918C14.25 16.7918 13.5169 16.5695 12.8934 16.1528C12.2698 15.7362 11.7839 15.144 11.4969 14.4512C11.2099 13.7583 11.1348 12.996 11.2811 12.2604C11.4274 11.5249 11.7885 10.8493 12.3188 10.3191C12.8491 9.78878 13.5247 9.42766 14.2602 9.28135C14.9957 9.13505 15.7581 9.21014 16.4509 9.49712C17.1438 9.7841 17.7359 10.2701 18.1526 10.8936C18.5692 11.5172 18.7916 12.2502 18.7916 13.0002C18.7916 14.0058 18.3921 14.9702 17.681 15.6813C16.97 16.3924 16.0055 16.7918 14.9999 16.7918ZM14.9999 11.3752C14.6785 11.3752 14.3643 11.4705 14.0971 11.649C13.8299 11.8276 13.6216 12.0814 13.4986 12.3783C13.3756 12.6752 13.3434 13.002 13.4061 13.3172C13.4688 13.6324 13.6236 13.922 13.8509 14.1492C14.0781 14.3765 14.3677 14.5312 14.6829 14.5939C14.9981 14.6566 15.3249 14.6245 15.6218 14.5015C15.9187 14.3785 16.1725 14.1702 16.3511 13.903C16.5296 13.6357 16.6249 13.3216 16.6249 13.0002C16.6249 12.5692 16.4537 12.1559 16.149 11.8511C15.8442 11.5464 15.4309 11.3752 14.9999 11.3752Z" fill="white" fill-opacity="0.34"/>
</g>
<defs>
<filter id="filter0_d" x="-2" y="0" width="34" height="34" filterUnits="userSpaceOnUse" color-interpolation-filters="sRGB">
<feFlood flood-opacity="0" result="BackgroundImageFix"/>
<feColorMatrix in="SourceAlpha" type="matrix" values="0 0 0 0 0 0 0 0 0 0 0 0 0 0 0 0 0 0 127 0"/>
<feOffset dy="4"/>
<feGaussianBlur stdDeviation="2"/>
<feColorMatrix type="matrix" values="0 0 0 0 0 0 0 0 0 0 0 0 0 0 0 0 0 0 0.25 0"/>
<feBlend mode="normal" in2="BackgroundImageFix" result="effect1_dropShadow"/>
<feBlend mode="normal" in="SourceGraphic" in2="effect1_dropShadow" result="shape"/>
</filter>
</defs>
</svg>
