<svg width="26" height="26" viewBox="0 0 26 26" fill="none" xmlns="http://www.w3.org/2000/svg">
<path d="M12.4583 2.1665C7.3775 2.1665 3.25 6.294 3.25 11.3748C3.25 16.4557 7.3775 20.5832 12.4583 20.5832H13V23.8332C18.265 21.2982 21.6667 16.2498 21.6667 11.3748C21.6667 6.294 17.5392 2.1665 12.4583 2.1665ZM12.4367 17.3332C11.7975 17.3332 11.2992 16.824 11.2992 16.1957C11.2992 15.5565 11.8083 15.069 12.4367 15.069C13.0758 15.069 13.5633 15.5565 13.5633 16.1957C13.5633 16.824 13.0867 17.3332 12.4367 17.3332ZM15.1558 10.649C14.4733 11.6565 13.8233 11.9598 13.4658 12.6098C13.3792 12.7615 13.325 12.8915 13.2925 13.1407C13.2383 13.5632 12.9025 13.8773 12.48 13.8773H12.4475C11.9708 13.8773 11.5917 13.4657 11.635 12.989C11.6675 12.6857 11.7325 12.3715 11.9058 12.079C12.35 11.2882 13.1842 10.8223 13.6717 10.129C14.1917 9.39234 13.8992 8.02734 12.4367 8.02734C11.7758 8.02734 11.3425 8.374 11.0717 8.78567C10.8658 9.09984 10.4542 9.20817 10.1075 9.0565C9.6525 8.8615 9.4575 8.29817 9.73917 7.89734C10.2917 7.09567 11.2125 6.49984 12.4258 6.49984C13.7583 6.49984 14.6792 7.1065 15.145 7.86484C15.535 8.52567 15.7733 9.739 15.1558 10.649Z" fill="white" fill-opacity="0.34"/>
</svg>
