<svg width="31" height="29" viewBox="0 0 31 29" fill="none" xmlns="http://www.w3.org/2000/svg">
<path d="M12.4 21.025V7.975L21.7 14.5L12.4 21.025ZM15.5 0C13.4645 0 11.449 0.375054 9.56841 1.10375C7.68786 1.83244 5.97915 2.9005 4.53984 4.24695C1.63303 6.96623 0 10.6544 0 14.5C0 18.3456 1.63303 22.0338 4.53984 24.753C5.97915 26.0995 7.68786 27.1676 9.56841 27.8963C11.449 28.6249 13.4645 29 15.5 29C19.6109 29 23.5533 27.4723 26.4602 24.753C29.367 22.0338 31 18.3456 31 14.5C31 12.5958 30.5991 10.7103 29.8201 8.95109C29.0412 7.19187 27.8995 5.5934 26.4602 4.24695C25.0208 2.9005 23.3121 1.83244 21.4316 1.10375C19.551 0.375054 17.5355 0 15.5 0Z" fill="#5C6B81"/>
</svg>
