<svg width="28" height="34" viewBox="0 0 28 34" fill="none" xmlns="http://www.w3.org/2000/svg">
<g clip-path="url(#clip0)" filter="url(#filter0_d)">
<path d="M9.813 0.000128548C9.58133 0.044191 9.37268 0.16871 9.22392 0.351692C9.07516 0.534673 8.99585 0.764341 9 1.00013V2.00013H5.406C4.606 2.00013 4 2.60613 4 3.40613V24.5001C4 25.4001 4.606 26.0001 5.406 26.0001H22.5C23.3 26.0001 23.906 25.3941 23.906 24.5941V3.40613C24.006 2.60613 23.394 2.00013 22.594 2.00013H19V1.00013C19 0.734912 18.8946 0.480558 18.7071 0.293022C18.5196 0.105485 18.2652 0.000128548 18 0.000128548H10C9.96868 -0.00134493 9.93732 -0.00134493 9.906 0.000128548C9.87468 -0.00134493 9.84332 -0.00134493 9.812 0.000128548H9.813ZM11 2.00013H17V4.00013H11V2.00013ZM6 4.00013H9V5.00013C9 5.26535 9.10536 5.5197 9.29289 5.70724C9.48043 5.89477 9.73478 6.00013 10 6.00013H18C18.2652 6.00013 18.5196 5.89477 18.7071 5.70724C18.8946 5.5197 19 5.26535 19 5.00013V4.00013H22V24.0001H6V4.00013ZM8 9.00013V13.0001H12V9.00013H8ZM9 10.0001H11V12.0001H9V10.0001ZM14 10.0001V12.0001H20V10.0001H14ZM8 15.0001V19.0001H12V15.0001H8ZM14 16.0001V18.0001H20V16.0001H14Z" fill="white" fill-opacity="0.34"/>
</g>
<defs>
<filter id="filter0_d" x="-3" y="0" width="34" height="34" filterUnits="userSpaceOnUse" color-interpolation-filters="sRGB">
<feFlood flood-opacity="0" result="BackgroundImageFix"/>
<feColorMatrix in="SourceAlpha" type="matrix" values="0 0 0 0 0 0 0 0 0 0 0 0 0 0 0 0 0 0 127 0"/>
<feOffset dy="4"/>
<feGaussianBlur stdDeviation="2"/>
<feColorMatrix type="matrix" values="0 0 0 0 0 0 0 0 0 0 0 0 0 0 0 0 0 0 0.25 0"/>
<feBlend mode="normal" in2="BackgroundImageFix" result="effect1_dropShadow"/>
<feBlend mode="normal" in="SourceGraphic" in2="effect1_dropShadow" result="shape"/>
</filter>
<clipPath id="clip0">
<rect width="26" height="26" fill="white" transform="translate(1)"/>
</clipPath>
</defs>
</svg>
